<svg width="41" height="52" viewBox="0 0 41 52" fill="none" xmlns="http://www.w3.org/2000/svg">
<path d="M0.994329 51.6051V41.6619L19.9858 25.9517C21.2453 24.9077 22.3225 23.9299 23.2173 23.0185C24.1288 22.0904 24.8248 21.1375 25.3054 20.1598C25.8026 19.182 26.0511 18.0966 26.0511 16.9034C26.0511 15.5942 25.7694 14.4756 25.206 13.5476C24.6591 12.6195 23.8968 11.9069 22.919 11.4098C21.9413 10.8961 20.8144 10.6392 19.5384 10.6392C18.2623 10.6392 17.1354 10.8961 16.1577 11.4098C15.1965 11.9235 14.4508 12.6775 13.9205 13.6719C13.3902 14.6662 13.125 15.8759 13.125 17.3011H1.11684e-05C1.11684e-05 13.7216 0.803752 10.6392 2.41123 8.05396C4.01871 5.46874 6.28907 3.4801 9.22231 2.08806C12.1556 0.69601 15.5942 -1.29938e-05 19.5384 -1.29938e-05C23.6151 -1.29938e-05 27.1449 0.65458 30.1279 1.96377C33.1274 3.25638 35.4392 5.0793 37.0632 7.43252C38.7038 9.78574 39.5242 12.545 39.5242 15.7102C39.5242 17.6657 39.1181 19.6129 38.3061 21.5518C37.4941 23.4742 36.0358 25.6037 33.9311 27.9403C31.8265 30.277 28.8352 33.0611 24.9574 36.2926L20.1847 40.2699V40.5682H40.071V51.6051H0.994329Z" fill="url(#paint0_linear_64_175)"/>
<defs>
<linearGradient id="paint0_linear_64_175" x1="17.6136" y1="-16.3949" x2="17.6136" y2="40.6051" gradientUnits="userSpaceOnUse">
<stop stop-color="#E1E2FF" stop-opacity="0.2"/>
<stop offset="1" stop-color="#CACCFF" stop-opacity="0.7"/>
</linearGradient>
</defs>
</svg>
