<svg width="121" height="121" viewBox="0 0 121 121" fill="none" xmlns="http://www.w3.org/2000/svg">
<path d="M60.5 0C93.9132 0 121 27.0868 121 60.5C121 93.9132 93.9132 121 60.5 121C27.0868 121 0 93.9132 0 60.5C0 27.0868 27.0868 0 60.5 0ZM89.8398 59.4336C84.5429 50.2033 68.319 47.6325 52.168 53.8418C34.9949 60.4442 24.4093 74.472 28.5234 85.1738C28.5348 85.2033 28.548 85.2323 28.5596 85.2617L58.8105 72.125L89.8398 59.4336ZM28.9131 24.207C23.236 24.0277 18.4198 30.6504 18.1553 38.999C17.891 47.348 22.2788 54.2624 27.9561 54.4424C33.6334 54.6221 38.4505 47.9994 38.7148 39.6504C38.979 31.3014 34.5904 24.3867 28.9131 24.207ZM70.6357 26.9336C70.1409 18.5951 65.1428 12.108 59.4727 12.4443C53.8025 12.7808 49.6071 19.813 50.1016 28.1514C50.5963 36.4898 55.5936 42.9767 61.2637 42.6406C66.9339 42.3042 71.1304 35.2722 70.6357 26.9336Z" fill="#FF7759"/>
<path d="M60.5 0C93.9132 0 121 27.0868 121 60.5C121 93.9132 93.9132 121 60.5 121C27.0868 121 0 93.9132 0 60.5C0 27.0868 27.0868 0 60.5 0ZM89.8398 59.4336C84.5429 50.2033 68.319 47.6325 52.168 53.8418C34.9949 60.4442 24.4093 74.472 28.5234 85.1738C28.5348 85.2033 28.548 85.2323 28.5596 85.2617L58.8105 72.125L89.8398 59.4336ZM28.9131 24.207C23.236 24.0277 18.4198 30.6504 18.1553 38.999C17.891 47.348 22.2788 54.2624 27.9561 54.4424C33.6334 54.6221 38.4505 47.9994 38.7148 39.6504C38.979 31.3014 34.5904 24.3867 28.9131 24.207ZM70.6357 26.9336C70.1409 18.5951 65.1428 12.108 59.4727 12.4443C53.8025 12.7808 49.6071 19.813 50.1016 28.1514C50.5963 36.4898 55.5936 42.9767 61.2637 42.6406C66.9339 42.3042 71.1304 35.2722 70.6357 26.9336Z" fill="#FF7759"/>
</svg>
