<svg width="100" height="100" viewBox="0 0 100 100" fill="none" xmlns="http://www.w3.org/2000/svg">
<path d="M50 0C77.6142 0 100 22.3858 100 50C100 77.6142 77.6142 100 50 100C22.3858 100 0 77.6142 0 50C0 22.3858 22.3858 0 50 0ZM44.5 49.9922L18.6338 59.9189C22.8439 67.6409 36.2024 70.0577 49.6592 65.2188C63.9676 60.0734 72.9679 48.6735 69.7617 39.7568C69.7529 39.7323 69.7424 39.708 69.7334 39.6836L44.5 49.9922ZM23.8955 20.0068C19.2034 19.8583 15.2223 25.3313 15.0039 32.2314C14.7856 39.1314 18.4125 44.8456 23.1045 44.9941C27.7964 45.1425 31.7775 39.6693 31.9961 32.7695C32.2145 25.8695 28.5875 20.1556 23.8955 20.0068ZM58.376 22.2598C57.9671 15.3686 53.8373 10.0075 49.1514 10.2852C44.4652 10.5632 40.9974 16.3752 41.4062 23.2666C41.8153 30.1578 45.9458 35.5192 50.6318 35.2412C55.3177 34.9629 58.7846 29.1508 58.376 22.2598Z" fill="#B7E8AD"/>
</svg>
