<svg width="100" height="100" viewBox="0 0 100 100" fill="none" xmlns="http://www.w3.org/2000/svg">
<path d="M50 0C77.6142 0 100 22.3858 100 50C100 77.6142 77.6142 100 50 100C22.3858 100 0 77.6142 0 50C0 22.3858 22.3858 0 50 0ZM70.7529 43.8613C69.6934 41.0902 66.5885 39.7022 63.8174 40.7617L24.8525 55.6602C22.0818 56.7199 20.6946 59.8248 21.7539 62.5957C22.8135 65.3668 25.9184 66.7548 28.6895 65.6953L67.6543 50.7969C70.4251 49.7372 71.8121 46.6322 70.7529 43.8613ZM23.8955 20.0059C19.2035 19.8574 15.2223 25.3314 15.0039 32.2314C14.7856 39.1314 18.4125 44.8456 23.1045 44.9941C27.7965 45.1427 31.7777 39.6686 31.9961 32.7686C32.2143 25.8687 28.5875 20.1544 23.8955 20.0059ZM58.376 22.2598C57.9671 15.3685 53.8374 10.0074 49.1514 10.2852C44.4652 10.5632 40.9974 16.3752 41.4062 23.2666C41.8153 30.1578 45.9458 35.5192 50.6318 35.2412C55.3178 34.963 58.7847 29.1509 58.376 22.2598Z" fill="#FFD36E"/>
</svg>
