<svg width="42" height="53" viewBox="0 0 42 53" fill="none" xmlns="http://www.w3.org/2000/svg">
<path d="M20.6818 52.3011C16.6714 52.3011 13.1085 51.6134 9.99292 50.2379C6.89396 48.8459 4.45788 46.9318 2.68468 44.4957C0.911481 42.0596 0.0165943 39.259 2.23368e-05 36.0937H13.9205C13.937 37.0715 14.2353 37.9498 14.8154 38.7287C15.412 39.491 16.224 40.0876 17.2514 40.5185C18.2789 40.9493 19.4555 41.1648 20.7813 41.1648C22.0573 41.1648 23.1842 40.941 24.162 40.4936C25.1397 40.0296 25.902 39.3916 26.4489 38.5795C26.9958 37.7675 27.2609 36.8395 27.2443 35.7954C27.2609 34.768 26.946 33.8565 26.2997 33.0611C25.67 32.2656 24.7834 31.6442 23.6399 31.1967C22.4965 30.7493 21.179 30.5256 19.6875 30.5256H14.5171V20.9801H19.6875C21.063 20.9801 22.2727 20.7564 23.3168 20.3089C24.3774 19.8615 25.1977 19.24 25.7777 18.4446C26.3743 17.6491 26.6643 16.7377 26.6478 15.7102C26.6643 14.7159 26.424 13.8376 25.9269 13.0753C25.4297 12.313 24.7337 11.7164 23.8388 11.2855C22.9605 10.8546 21.9413 10.6392 20.7813 10.6392C19.5218 10.6392 18.3949 10.8629 17.4006 11.3104C16.4228 11.7578 15.6522 12.3793 15.0888 13.1747C14.5254 13.9702 14.2353 14.8816 14.2188 15.9091H0.994341C1.01091 12.7935 1.86437 10.0426 3.55471 7.65624C5.26162 5.26987 7.59827 3.39724 10.5647 2.03834C13.531 0.679438 16.9366 -1.29938e-05 20.7813 -1.29938e-05C24.5431 -1.29938e-05 27.8658 0.638008 30.7493 1.91405C33.6494 3.19009 35.9115 4.94672 37.5355 7.18394C39.1762 9.40458 39.9882 11.9484 39.9716 14.8153C40.0048 17.6657 39.027 20.0024 37.0384 21.8253C35.0663 23.6482 32.5639 24.7254 29.5313 25.0568V25.4545C33.6411 25.902 36.7318 27.1614 38.8033 29.2329C40.8748 31.2879 41.894 33.8731 41.8608 36.9886C41.8774 39.9716 40.9825 42.6148 39.1762 44.9183C37.3864 47.2218 34.8923 49.0282 31.6939 50.3373C28.5121 51.6465 24.8414 52.3011 20.6818 52.3011Z" fill="url(#paint0_linear_64_177)"/>
<defs>
<linearGradient id="paint0_linear_64_177" x1="17.4148" y1="-16.3949" x2="17.4148" y2="40.6051" gradientUnits="userSpaceOnUse">
<stop stop-color="#E1E2FF" stop-opacity="0.2"/>
<stop offset="1" stop-color="#CACCFF" stop-opacity="0.7"/>
</linearGradient>
</defs>
</svg>
