<svg width="112" height="97" viewBox="0 0 112 97" fill="none" xmlns="http://www.w3.org/2000/svg">
<path d="M60.5 0C93.9132 0 121 27.0868 121 60.5C121 93.9132 93.9132 121 60.5 121C27.0868 121 0 93.9132 0 60.5C0 27.0868 27.0868 0 60.5 0ZM53.8447 60.4902L22.5459 72.501C27.6398 81.8449 43.804 84.7691 60.0869 78.9141C77.4002 72.6882 88.2899 58.8947 84.4102 48.1055C84.3995 48.0759 84.3868 48.0461 84.376 48.0166L53.8447 60.4902ZM28.9131 24.207C23.236 24.0277 18.4198 30.6504 18.1553 38.999C17.891 47.348 22.2788 54.2624 27.9561 54.4424C33.6334 54.6221 38.4505 47.9995 38.7148 39.6504C38.9791 31.3013 34.5905 24.3867 28.9131 24.207ZM70.6348 26.9336C70.14 18.5952 65.1428 12.1082 59.4727 12.4443C53.8027 12.781 49.6071 19.8131 50.1016 28.1514C50.5963 36.4898 55.5936 42.9776 61.2637 42.6416C66.934 42.3052 71.1295 35.2722 70.6348 26.9336Z" fill="#E4E5FF"/>
</svg>
